<svg xmlns="http://www.w3.org/2000/svg" viewBox="0 0 54.02 82.49"><defs><style>.cls-1{isolation:isolate;}.cls-2{fill:#f6a774;}.cls-14,.cls-3{fill:#dadada;}.cls-11,.cls-3,.cls-7{mix-blend-mode:multiply;}.cls-4{fill:#f8bb94;}.cls-5{fill:#fff;}.cls-6{fill:#00b0b1;}.cls-7{fill:#c6c6c6;}.cls-8{fill:#1f1f1f;}.cls-9{fill:#353535;}.cls-10{fill:#cc8a64;}.cls-11{fill:#ededed;}.cls-12{fill:#da9668;}.cls-13{fill:#d19064;}.cls-15{fill:#2a2a29;opacity:0.2;}</style></defs><title>Asset 1</title><g class="cls-1"><g id="Layer_2" data-name="Layer 2"><g id="Capa_1" data-name="Capa 1"><rect class="cls-2" x="22.26" y="59.34" width="9.07" height="5.39"/><path class="cls-3" d="M28,64c-1.89-.61-3.49-1.8-3.73-3.89a2,2,0,0,1,.08-.78H22.26v5.39h9.07v-.68A6.17,6.17,0,0,1,28,64Z"/><path class="cls-4" d="M54,82.49c-.14-5.66-1.44-10.16-6.24-11.89-5.5-2-16.2-6.1-16.2-6.1H22.45s-10.71,4.13-16.2,6.1C1.45,72.33.14,76.83,0,82.49Z"/><path class="cls-5" d="M54,82.49c-.14-5.66-1.44-10.16-6.24-11.89-5.5-2-16.2-6.1-16.2-6.1H22.45s-10.71,4.13-16.2,6.1C1.45,72.33.14,76.83,0,82.49Z"/><path class="cls-6" d="M25.11,71.59a.92.92,0,0,1,.14-.15l-.14.15-.28,10.9h4.51l-.42-10.9.88-4a1.93,1.93,0,0,0-1.11-2.89,8.62,8.62,0,0,0-2.44-.1,2,2,0,0,0-1.88.77,1.91,1.91,0,0,0-.14,2.22Z"/><path class="cls-7" d="M25,71s2.66-1.37,3.94.63a3.87,3.87,0,0,0-3.8,0Z"/><path class="cls-8" d="M54,82.49c-.14-5.66-1.44-10.16-6.24-11.89-5.5-2-12-4.47-12-4.47L32.36,82.49Z"/><path class="cls-8" d="M21.93,82.49,18.29,66.1s-6.55,2.53-12,4.5C1.45,72.33.14,76.83,0,82.49Z"/><polygon class="cls-7" points="27.01 64.5 22.65 75.14 18.29 66.1 27.01 64.5"/><path class="cls-5" d="M22.26,63.72a36.49,36.49,0,0,1-4,2.38l4.18,7.16A64.48,64.48,0,0,1,27,64.5Z"/><polygon class="cls-7" points="26.97 64.5 31.33 75.14 35.69 66.1 26.97 64.5"/><path class="cls-5" d="M31.72,63.72a38.12,38.12,0,0,0,4,2.38l-4.18,7.16A64.48,64.48,0,0,0,27,64.5Z"/><path class="cls-9" d="M14.6,77.8s3.69.3,2.54,1.5L12,81.09l.84,1.4h9.08L18.29,66.1,10.63,69,11,75.15S10.91,78.53,14.6,77.8Z"/><path class="cls-9" d="M41.23,82.49l.82-1.4L36.92,79.3c-1.16-1.2,2.54-1.5,2.54-1.5,3.69.73,3.59-2.65,3.59-2.65L43.42,69l-7.66-2.9L32.31,82.49Z"/><path class="cls-2" d="M39.54,42.23c-.19,2.9,1.14,5.35,3,5.46s3.45-2.13,3.64-5-1.14-5.35-3-5.46S39.72,39.33,39.54,42.23Z"/><path class="cls-10" d="M42.12,41.2s0-.16.05-.43a3.84,3.84,0,0,1,.29-1.07c.17-.4.47-.86.92-.93a1.37,1.37,0,0,1,.35,0l.19.06.13.07a1.59,1.59,0,0,1,.52.59,3,3,0,0,1,.31.79,3.41,3.41,0,0,1,.13.82c0,.28,0,.58,0,.83s0,.51-.07.73-.08.44-.1.63a3.61,3.61,0,0,1-.1.48l-.08.43s.08-.14.19-.39a4.19,4.19,0,0,0,.2-.46c.07-.18.14-.39.22-.62s.12-.49.18-.76a7.58,7.58,0,0,0,.11-.85,3.23,3.23,0,0,0-.09-1,3.72,3.72,0,0,0-.36-.94,2.09,2.09,0,0,0-.73-.78,1.46,1.46,0,0,0-.28-.13,1.53,1.53,0,0,0-.25-.06,1.93,1.93,0,0,0-.54,0,1.37,1.37,0,0,0-.81.59,2.13,2.13,0,0,0-.33.75,3.65,3.65,0,0,0-.09,1.17A1.93,1.93,0,0,0,42.12,41.2Z"/><path class="cls-10" d="M42.12,41.2s-.2-.29,1-.47c0,0,1.34.09.76,1.57a4.27,4.27,0,0,0-.27,1c0,.48.25,1.11,0,1.56A.91.91,0,0,1,42,44.59c-.11-.47.39-1.34.62-1.7A1.13,1.13,0,0,0,42.12,41.2Z"/><path class="cls-10" d="M42,44.53a.39.39,0,0,0-.08.09.66.66,0,0,0-.14.28.65.65,0,0,0,0,.21.91.91,0,0,0,0,.23l.06.26.13.22a1.2,1.2,0,0,0,.17.21c.06.06.13.1.19.15a.92.92,0,0,0,.39.18,1.72,1.72,0,0,0,.41,0,2,2,0,0,0-.23-.33,1.42,1.42,0,0,0-.12-.13l-.1-.15-.12-.14c-.05,0-.06-.1-.1-.15a1.83,1.83,0,0,1-.18-.3,1,1,0,0,1-.07-.15.94.94,0,0,1-.06-.15A1.57,1.57,0,0,1,42,44.53Z"/><path class="cls-2" d="M9,32S6.9,53.74,17.57,60.59c0,0,5.33,5.24,11.73.65,0,0,9.49-5.12,11.06-9,0,0,8.2-35.37-11.71-36.52C28.65,15.69,11.65,11.76,9,32Z"/><path class="cls-11" d="M28.65,15.69a16.49,16.49,0,0,0-3.35-.31,15.74,15.74,0,0,1,8,7.88,44.56,44.56,0,0,1,4.61,17A20.39,20.39,0,0,1,27.7,59.07c-2.83,1.52-6.36,3-9.6,2a9,9,0,0,0,11.2.2s9.49-5.12,11.06-9C40.36,52.21,48.56,16.84,28.65,15.69Z"/><path class="cls-8" d="M29.13,37.29a1.72,1.72,0,1,0,1.71-1.71A1.71,1.71,0,0,0,29.13,37.29Z"/><path class="cls-8" d="M30.74,36.19c-.14.2.06.58.45.86s.81.34.94.15-.06-.57-.44-.85S30.88,36,30.74,36.19Z"/><path class="cls-8" d="M27.57,31.55a1.28,1.28,0,0,0-.83,1.09s0,1,.87.91c0,0,6.15-.79,8.52.73C36.13,34.28,35.84,29.77,27.57,31.55Z"/><path class="cls-8" d="M18.8,37.29a1.72,1.72,0,1,1-1.71-1.71A1.72,1.72,0,0,1,18.8,37.29Z"/><path class="cls-8" d="M17.19,36.19c.13.2-.07.58-.45.86s-.81.34-.95.15.06-.57.45-.85S17.05,36,17.19,36.19Z"/><path class="cls-8" d="M20.35,31.55a1.28,1.28,0,0,1,.83,1.09s0,1-.87.91c0,0-6.14-.79-8.52.73C11.79,34.28,12.08,29.77,20.35,31.55Z"/><path class="cls-12" d="M22.7,41.22a5.85,5.85,0,0,1,0,.59,11.85,11.85,0,0,1-.12,1.39,12.75,12.75,0,0,1-.41,1.74c0,.15-.09.3-.13.46l-.09.22,0,.06v0h0s0,.1,0-.1v0s0,0,0,.06a4.33,4.33,0,0,0-.1.71,3,3,0,0,0,0,.56.82.82,0,0,0,.13.37,2.27,2.27,0,0,0,1.13.63c.47.15.93.22,1.26.3l.53.12s-.15.14-.43.35a5.05,5.05,0,0,1-1.32.64,3.93,3.93,0,0,1-1.05.16,3,3,0,0,1-1.36-.32A2.81,2.81,0,0,1,19.57,48a3.6,3.6,0,0,1-.42-1.53,4.75,4.75,0,0,1,.11-1.41l0-.2.05-.13v0l0-.07.11-.26.24-.49A7,7,0,0,1,21,42.32a5.24,5.24,0,0,1,1.19-.86A2.58,2.58,0,0,1,22.7,41.22Z"/><path class="cls-13" d="M18.25,51.64a12.54,12.54,0,0,1,1.81-.39A17.82,17.82,0,0,1,21.92,51c.68-.06,1.4-.09,2.13-.09a25.64,25.64,0,0,1,4,.3,12.54,12.54,0,0,1,1.81.39A13.28,13.28,0,0,1,28,52a27,27,0,0,1-4,.29c-.73,0-1.45,0-2.13-.08s-1.32-.13-1.86-.22A12.54,12.54,0,0,1,18.25,51.64Z"/><path class="cls-8" d="M39.52,12.29s4.95,1,5.25,9.06a86.08,86.08,0,0,1-.78,16c-1.57-.24-2,0-2,0l-.41,6.9h-1V36.7c-.1-4.85-3.63-4.87-3.63-4.87a9.48,9.48,0,0,0,0-8.06c-1.47-3.57-20.52-2.43-20.52-2.43-7.29.14-5.41,8.87-5.41,8.87a2.08,2.08,0,0,0-2.1,2,33.31,33.31,0,0,0-.15,5.09s-4.38-14.53.58-21.91c0,0-3.5-8.67,9.39-15.38-1,.51.7,3.28,1.08,3.63,2.34,2.16,5.67,1.63,8.57,1.45.47,0,.93,0,1.4,0a13.94,13.94,0,0,1,6.72,1.51S40.69,8.67,39.52,12.29Z"/><path class="cls-8" d="M37.83,51.64s-4.22,5.58-7,.52c0,0-1-4.16-7.28-1.81,0,0-4.4-2.14-6.48,1.29,0,0-2.11,4.51-4.06,1.68A53.2,53.2,0,0,1,9.13,42.45c.69,6.58,2.75,14.48,8.44,18.14,0,0,5.33,5.24,11.73.65,0,0,9.49-5.12,11.06-9,0,0,1.14-5.76,1.27-8h-1A19.51,19.51,0,0,1,37.83,51.64Z"/><path class="cls-5" d="M19,51.64h9.57s-.17,3.54-4.78,3.91C23.83,55.55,19.61,55.78,19,51.64Z"/><path class="cls-13" d="M19.16,52.24a2.87,2.87,0,0,0,.23.49,4,4,0,0,0,.84,1,4,4,0,0,0,.68.49,6.56,6.56,0,0,0,.85.35,7.24,7.24,0,0,0,1,.19c.16,0,.35,0,.52,0l.28,0h.25a7.43,7.43,0,0,0,2-.32,4.83,4.83,0,0,0,1.58-.84,5.14,5.14,0,0,0,.9-1,5.38,5.38,0,0,0,.3-.46v.14a1.81,1.81,0,0,1,0,.42A3.52,3.52,0,0,1,28,54.22a4.28,4.28,0,0,1-1.71,1.45,5.85,5.85,0,0,1-2.47.57h-.34l-.31,0c-.22,0-.42,0-.63-.09a6.16,6.16,0,0,1-1.22-.37c-.18-.1-.37-.19-.54-.3s-.33-.23-.48-.36a3.27,3.27,0,0,1-.69-.82,3.12,3.12,0,0,1-.48-1.46A2.12,2.12,0,0,1,19.16,52.24Z"/><path class="cls-14" d="M20.38,53.32a10.78,10.78,0,0,1,1.08-.2,18.72,18.72,0,0,1,4.73,0,10.78,10.78,0,0,1,1.08.2s-.43.1-1.08.2a20,20,0,0,1-2.36.14,17.94,17.94,0,0,1-2.37-.15C20.81,53.42,20.38,53.32,20.38,53.32Z"/><path class="cls-14" d="M22.38,52.24a2.31,2.31,0,0,1,.19.37,2.36,2.36,0,0,1,.15.83,2.26,2.26,0,0,1-.15.82,2.19,2.19,0,0,1-.19.38,1.83,1.83,0,0,1-.2-.38,2.5,2.5,0,0,1-.15-.82,2.61,2.61,0,0,1,.15-.83A1.91,1.91,0,0,1,22.38,52.24Z"/><path class="cls-14" d="M24.7,52.24a1.91,1.91,0,0,1,.2.37,2.37,2.37,0,0,1,.14.83,2.27,2.27,0,0,1-.14.82,1.83,1.83,0,0,1-.2.38,1.83,1.83,0,0,1-.2-.38,2.51,2.51,0,0,1-.14-.82,2.62,2.62,0,0,1,.14-.83A2.89,2.89,0,0,1,24.7,52.24Z"/><path class="cls-5" d="M37.5,34.08s-.92-1.6-8.13-.93c0,0-3.56.34-4.83,1.7a1.78,1.78,0,0,1-1,.47,1.73,1.73,0,0,1-1-.47c-1.28-1.36-4.83-1.7-4.83-1.7-7.22-.67-8.14.93-8.14.93l-1.31.27L8.06,37l1.31-.5.44,2.9c.69,3.94,5.06,3.7,5.06,3.7,6.55.29,7.25-5.23,7.25-5.23a1.34,1.34,0,0,1,.59-.59,3.1,3.1,0,0,1,.76-.17h.16a2.73,2.73,0,0,1,.76.18,1.3,1.3,0,0,1,.58.58s.7,5.52,7.26,5.23c0,0,4.37.24,5.05-3.7l.44-2.9,1.45.44L39,34.4ZM21,39.26s-1.74,4.16-8,2.82c0,0-2.09-.24-2.63-3.44,0,0-1.45-4.35,3-4.78,0,0,6.92-.07,7.85,1.28C21.22,35.14,22.26,35.9,21,39.26Zm15.7-.62c-.55,3.2-2.64,3.44-2.64,3.44-6.29,1.34-8-2.82-8-2.82-1.23-3.36-.19-4.12-.19-4.12.93-1.35,7.86-1.28,7.86-1.28C38.17,34.29,36.73,38.64,36.73,38.64Z"/><path class="cls-15" d="M21,39.26s-1.74,4.16-8,2.82c0,0-2.09-.24-2.63-3.44,0,0-1.45-4.35,3-4.78,0,0,6.92-.07,7.85,1.28C21.22,35.14,22.26,35.9,21,39.26Z"/><path class="cls-15" d="M36.73,38.64c-.55,3.2-2.64,3.44-2.64,3.44-6.29,1.34-8-2.82-8-2.82-1.23-3.36-.19-4.12-.19-4.12.93-1.35,7.86-1.28,7.86-1.28C38.17,34.29,36.73,38.64,36.73,38.64Z"/></g></g></g></svg>