<svg id="Icon_feather-settings" data-name="Icon feather-settings" xmlns="http://www.w3.org/2000/svg" width="36" height="35.667" viewBox="0 0 36 35.667">
  <path id="Path_551" data-name="Path 551" d="M22.5,18A4.5,4.5,0,1,1,18,13.5,4.5,4.5,0,0,1,22.5,18Z" transform="translate(0 -0.167)" fill="none" stroke="#000" stroke-linecap="round" stroke-linejoin="round" stroke-width="3"/>
  <path id="Path_552" data-name="Path 552" d="M29.1,22.288a2.432,2.432,0,0,0,.495,2.7l.09.089a2.949,2.949,0,0,1,0,4.2,3.022,3.022,0,0,1-4.245,0l-.09-.089a2.494,2.494,0,0,0-2.73-.49,2.45,2.45,0,0,0-1.5,2.242V31.2a3,3,0,0,1-6,0v-.134a2.452,2.452,0,0,0-1.62-2.242,2.494,2.494,0,0,0-2.73.49l-.09.089a3.022,3.022,0,0,1-4.245,0,2.949,2.949,0,0,1,0-4.2l.09-.089a2.432,2.432,0,0,0,.495-2.7,2.476,2.476,0,0,0-2.265-1.485H4.5a2.97,2.97,0,1,1,0-5.939h.135a2.473,2.473,0,0,0,2.265-1.6,2.432,2.432,0,0,0-.5-2.7l-.09-.089a2.949,2.949,0,0,1,0-4.2,3.022,3.022,0,0,1,4.245,0l.09.089a2.494,2.494,0,0,0,2.73.49h.12A2.45,2.45,0,0,0,15,4.722V4.47a3,3,0,0,1,6,0V4.6a2.45,2.45,0,0,0,1.5,2.242,2.494,2.494,0,0,0,2.73-.49l.09-.089a3.022,3.022,0,0,1,4.245,0,2.949,2.949,0,0,1,0,4.2l-.09.089a2.432,2.432,0,0,0-.5,2.7v.119a2.476,2.476,0,0,0,2.265,1.485H31.5a2.97,2.97,0,1,1,0,5.939h-.135A2.476,2.476,0,0,0,29.1,22.288Z" transform="translate(0 0)" fill="none" stroke="#000" stroke-linecap="round" stroke-linejoin="round" stroke-width="3"/>
</svg>
