<svg xmlns="http://www.w3.org/2000/svg" width="155.411" height="137.467" viewBox="0 0 155.411 137.467">
  <g id="Group_141" data-name="Group 141" transform="translate(-295.657 0)">
    <path id="Path_113" data-name="Path 113" d="M630.818,159.732v59.76H475.407v-59.76a77.7,77.7,0,0,1,73.22-77.579q2.223-.13,4.486-.127c.857,0,1.714.012,2.562.043a77.447,77.447,0,0,1,52.382,22.716c.421.421.832.845,1.247,1.271a78.3,78.3,0,0,1,5.977,7.05,77.355,77.355,0,0,1,15.539,46.625Z" transform="translate(-179.75 -82.026)" fill="#e6e6e6"/>
    <path id="Path_114" data-name="Path 114" d="M719.142,82.068V219.49h-7.049V82.152q2.225-.13,4.486-.128C717.437,82.023,718.293,82.036,719.142,82.068Z" transform="translate(-343.217 -82.024)" fill="#fff"/>
    <path id="Path_115" data-name="Path 115" d="M649.967,166.76H525.633a77.938,77.938,0,0,1,5.976-7.05H643.992A77.931,77.931,0,0,1,649.967,166.76Z" transform="translate(-214.439 -135.678)" fill="#fff"/>
    <rect id="Rectangle_15" data-name="Rectangle 15" width="55.08" height="86.197" transform="translate(384.159 51.269)" fill="#fff"/>
    <rect id="Rectangle_16" data-name="Rectangle 16" width="8.331" height="8.331" transform="translate(393.763 67.022)" fill="#e6e6e6"/>
    <rect id="Rectangle_17" data-name="Rectangle 17" width="8.331" height="8.331" transform="translate(407.186 67.022)" fill="#e6e6e6"/>
    <rect id="Rectangle_18" data-name="Rectangle 18" width="8.331" height="8.331" transform="translate(420.608 67.022)" fill="#e6e6e6"/>
    <rect id="Rectangle_19" data-name="Rectangle 19" width="8.331" height="8.331" transform="translate(393.994 85.999)" fill="#e6e6e6"/>
    <rect id="Rectangle_20" data-name="Rectangle 20" width="8.331" height="8.331" transform="translate(407.417 85.999)" fill="#e6e6e6"/>
    <rect id="Rectangle_21" data-name="Rectangle 21" width="8.331" height="8.331" transform="translate(420.84 85.999)" fill="#e6e6e6"/>
    <rect id="Rectangle_22" data-name="Rectangle 22" width="8.331" height="8.331" transform="translate(394.225 104.977)" fill="#e6e6e6"/>
    <rect id="Rectangle_23" data-name="Rectangle 23" width="8.331" height="8.331" transform="translate(407.648 104.977)" fill="#e6e6e6"/>
    <rect id="Rectangle_24" data-name="Rectangle 24" width="8.331" height="8.331" transform="translate(421.071 104.977)" fill="#e6e6e6"/>
    <rect id="Rectangle_25" data-name="Rectangle 25" width="8.331" height="8.331" transform="translate(394.457 123.954)" fill="#e6e6e6"/>
    <rect id="Rectangle_26" data-name="Rectangle 26" width="8.331" height="8.331" transform="translate(407.88 123.954)" fill="#e6e6e6"/>
    <rect id="Rectangle_27" data-name="Rectangle 27" width="8.331" height="8.331" transform="translate(421.303 123.954)" fill="#e6e6e6"/>
    <rect id="Rectangle_28" data-name="Rectangle 28" width="8.331" height="8.331" transform="translate(394.457 123.954)" fill="#e6e6e6"/>
    <rect id="Rectangle_29" data-name="Rectangle 29" width="8.331" height="8.331" transform="translate(407.88 123.954)" fill="#e6e6e6"/>
    <rect id="Rectangle_30" data-name="Rectangle 30" width="8.331" height="8.331" transform="translate(421.303 123.954)" fill="#e6e6e6"/>
    <circle id="Ellipse_3" data-name="Ellipse 3" cx="11.483" cy="11.483" r="11.483" transform="translate(302.647 95.54)" fill="#50c0fb"/>
    <path id="Path_116" data-name="Path 116" d="M354.787,376.406h-1.12l.35-18.963.21-11.48h.031l.2,11.48.111,6.53.012.634Z" transform="translate(-40.065 -238.94)" fill="#fff"/>
    <rect id="Rectangle_31" data-name="Rectangle 31" width="0.568" height="2.145" transform="translate(315.987 124.254) rotate(62.234)" fill="#fff"/>
    <circle id="Ellipse_4" data-name="Ellipse 4" cx="17.462" cy="17.462" r="17.462" transform="translate(330.427 72.61)" fill="#50c0fb"/>
    <path id="Path_117" data-name="Path 117" d="M463.585,338.558h-1.748l.362-19.678.189-10.258.322-17.46h.049l.3,17.457.173,9.933.018.965Z" transform="translate(-114.773 -201.092)" fill="#fff"/>
    <rect id="Rectangle_32" data-name="Rectangle 32" width="0.863" height="3.262" transform="translate(350.714 116.274) rotate(62.234)" fill="#fff"/>
    <path id="Path_118" data-name="Path 118" d="M517.988,313.949l2.95-2.359a3.126,3.126,0,0,0-3.619,1.986,5.025,5.025,0,0,0-3.739.231l5.9,2.143a4.467,4.467,0,0,0-1.494-2Z" transform="translate(-206.115 -240.551)" fill="#50c0fb"/>
    <path id="Path_119" data-name="Path 119" d="M618.463,251.8l2.95-2.359a3.126,3.126,0,0,0-3.619,1.986,5.025,5.025,0,0,0-3.739.231l5.9,2.143A4.466,4.466,0,0,0,618.463,251.8Z" transform="translate(-275.508 -197.627)" fill="#50c0fb"/>
    <path id="Path_120" data-name="Path 120" d="M580.138,310.842l2.95-2.359a3.126,3.126,0,0,0-3.619,1.986,5.024,5.024,0,0,0-3.739.231l5.9,2.143a4.467,4.467,0,0,0-1.494-2Z" transform="translate(-249.039 -238.405)" fill="#50c0fb"/>
  </g>
</svg>
